<svg xmlns="http://www.w3.org/2000/svg" version="1.1" xmlns:xlink="http://www.w3.org/1999/xlink" xmlns:svgjs="http://svgjs.dev/svgjs" width="1000" height="1125" viewBox="0 0 1000 1125"><g transform="matrix(1,0,0,1,0.0011008540699322111,0)"><svg viewBox="0 0 320 360" data-background-color="#282634" preserveAspectRatio="xMidYMid meet" height="1125" width="1000" xmlns="http://www.w3.org/2000/svg" xmlns:xlink="http://www.w3.org/1999/xlink"><g id="tight-bounds" transform="matrix(1,0,0,1,0.00010353528136874957,0)"><svg viewBox="0 0 320 360" height="360" width="320"><g><svg></svg></g><g><svg viewBox="0 0 320 360" height="360" width="320"><g><path d="M307.925 179.999l6.575-11.387c11.322-19.607 4.604-44.679-15.003-56.001l-11.387-6.575v-13.151c0-22.639-18.354-40.994-40.994-40.994h-13.151l-6.575-11.387c-11.322-19.607-36.393-26.325-56.001-15.003l-11.39 6.572-11.387-6.576c-19.607-11.318-44.679-4.6-56.001 15.007l-6.575 11.387h-13.151c-22.639 0-40.994 18.354-40.994 40.994v13.151l-11.387 6.575c-19.607 11.322-26.325 36.393-15.003 56.001l6.572 11.387-6.576 11.387c-11.318 19.607-4.6 44.679 15.007 56l11.387 6.576v13.15c0 22.639 18.354 40.994 40.994 40.994h13.151l6.575 11.387c11.322 19.607 36.393 26.325 56.001 15.003l11.387-6.571 11.387 6.575c19.607 11.322 44.679 4.604 56-15.003l6.576-11.387h13.15c22.639 0 40.994-18.354 40.994-40.994v-13.151l11.387-6.575c19.607-11.322 26.325-36.393 15.003-56.001zM297.702 115.716c8.655 4.996 14.842 13.062 17.428 22.713 2.586 9.65 1.261 19.734-3.735 28.384l-5.538 9.596-17.747-30.74v-35.494zM251.155 271.155l-57.791 33.365h-66.731l-57.791-33.365-33.365-57.791v-66.731l33.365-57.791 57.791-33.365h66.731l57.791 33.365 33.365 57.791v66.731zM284.517 220.539v31.351l-27.151 15.676zM247.566 277.366l-15.676 27.151h-31.351zM187.15 308.106l-27.151 15.676-27.151-15.676zM119.459 304.517h-31.352l-15.676-27.151zM62.632 267.566l-27.151-15.676v-31.351zM31.891 207.15l-15.675-27.151 15.675-27.151zM35.481 139.459v-31.352l27.151-15.676zM72.431 82.632l15.676-27.151h31.352zM132.848 51.891l27.151-15.675 27.151 15.675zM200.539 55.481h31.351l15.676 27.151zM257.366 92.431l27.151 15.676v31.352zM288.106 152.848l15.676 27.151-15.676 27.151zM247.112 55.481c9.992 0 19.384 3.889 26.452 10.956 7.063 7.063 10.956 16.46 10.957 26.452v11.079l-30.741-17.747-17.747-30.74zM173.18 28.606c8.655-4.996 18.735-6.322 28.385-3.735 9.65 2.586 17.716 8.777 22.712 17.428l5.538 9.596h-35.494l-30.741-17.747zM95.716 42.295c4.996-8.655 13.062-14.842 22.713-17.428 9.65-2.586 19.734-1.261 28.384 3.736l9.596 5.537-30.74 17.747h-35.494zM35.481 92.885c0-9.992 3.889-19.384 10.956-26.452 7.063-7.063 16.46-10.956 26.452-10.956h11.079l-17.747 30.74-30.74 17.747zM8.606 166.817c-4.996-8.655-6.322-18.735-3.735-28.385 2.586-9.65 8.777-17.716 17.428-22.712l9.596-5.538v35.495l-17.747 30.74zM22.295 244.281c-8.655-4.996-14.842-13.062-17.428-22.712-2.586-9.65-1.261-19.734 3.736-28.385l5.537-9.596 17.747 30.74v35.495zM72.885 304.517c-9.992 0-19.384-3.889-26.452-10.957-7.063-7.063-10.956-16.46-10.956-26.451v-11.08l30.74 17.747 17.747 30.741zM146.817 331.391c-8.655 4.996-18.735 6.322-28.385 3.735-9.65-2.586-17.716-8.777-22.712-17.428l-5.538-9.596h35.495l30.74 17.747zM224.281 317.702c-4.996 8.655-13.062 14.842-22.712 17.428-9.65 2.586-19.734 1.261-28.385-3.735l-9.596-5.538 30.74-17.747h35.495zM284.517 267.112c0 9.992-3.889 19.384-10.957 26.452-7.063 7.063-16.46 10.956-26.451 10.957h-11.08l17.747-30.741 30.741-17.747zM315.13 221.565c-2.586 9.65-8.777 17.716-17.428 22.712l-9.596 5.538v-35.494l17.747-30.741 5.538 9.596c4.996 8.658 6.326 18.739 3.739 28.389z" fill="#ffffff" fill-rule="nonzero" stroke="none" stroke-width="1" stroke-linecap="butt" stroke-linejoin="miter" stroke-miterlimit="10" stroke-dasharray="" stroke-dashoffset="0" font-family="none" font-weight="none" font-size="none" text-anchor="none" style="mix-blend-mode: normal" data-fill-palette-color="tertiary"></path></g><g transform="matrix(1,0,0,1,75.01428571428569,90)"><svg viewBox="0 0 169.97142857142862 180" height="180" width="169.97142857142862"><g><svg viewBox="0 0 169.97142857142862 180" height="180" width="169.97142857142862"><g><svg viewBox="0 0 169.97142857142862 180" height="180" width="169.97142857142862"><g><svg viewBox="0 0 169.97142857142862 180" height="180" width="169.97142857142862"><g id="textblocktransform"><svg viewBox="0 0 169.97142857142862 180" height="180" width="169.97142857142862" id="textblock"><g><svg viewBox="0 0 169.97142857142862 180" height="180" width="169.97142857142862"><g transform="matrix(1,0,0,1,0,0)"><svg width="169.97142857142862" viewBox="1.75 -35 33.05 35" height="180" data-palette-color="#ffffff"><path d="M16 0L1.75 0 1.95-3.3Q3.05-3.35 3.85-3.6 4.65-3.85 5.13-4.75 5.6-5.65 5.7-7.65L5.7-7.65 6.7-26.8Q6.8-28.15 6.93-29.4 7.05-30.65 7.15-31.3L7.15-31.3Q6.35-31.25 5.15-31.23 3.95-31.2 3.4-31.15L3.4-31.15 3.6-35 17.8-35 17.65-31.7Q16.55-31.65 15.73-31.4 14.9-31.15 14.43-30.28 13.95-29.4 13.85-27.35L13.85-27.35 13.45-19.75 17.1-19.75 21.25-26.3Q22.25-27.8 23.28-29.3 24.3-30.8 24.95-31.35L24.95-31.35Q24.15-31.3 23.25-31.25 22.35-31.2 21.8-31.15L21.8-31.15 21.95-35 34.2-35 34.05-31.7Q32.95-31.65 31.65-31.3 30.35-30.95 28.95-29.9 27.55-28.85 26.05-26.6L26.05-26.6 20.85-18.9Q21.8-18.25 22.55-17.53 23.3-16.8 23.8-15.95L23.8-15.95 28.5-8.7Q29.45-7.3 30.48-6.08 31.5-4.85 32.6-4.1 33.7-3.35 34.8-3.3L34.8-3.3 34.6 0 27 0Q26.6-0.05 25.73-0.9 24.85-1.75 23.93-2.95 23-4.15 22.35-5.1L22.35-5.1 17.8-12.3Q17.15-13.25 16.43-14.25 15.7-15.25 15.05-15.75L15.05-15.75Q15-15.75 14.35-15.75 13.7-15.75 13.25-15.75L13.25-15.75 12.85-8.2Q12.8-6.85 12.68-5.6 12.55-4.35 12.45-3.7L12.45-3.7Q13.25-3.8 14.48-3.83 15.7-3.85 16.2-3.85L16.2-3.85 16 0Z" opacity="1" transform="matrix(1,0,0,1,0,0)" fill="#ffffff" class="undefined-text-0" data-fill-palette-color="primary" id="text-0"></path></svg></g></svg></g></svg></g></svg></g></svg></g></svg></g></svg></g></svg></g><defs></defs></svg><rect width="320" height="360" fill="none" stroke="none" visibility="hidden"></rect></g></svg></g></svg>